<?xml version="1.0" standalone="no"?>
<!DOCTYPE svg PUBLIC "-//W3C//DTD SVG 20010904//EN"
 "http://www.w3.org/TR/2001/REC-SVG-20010904/DTD/svg10.dtd">
<svg version="1.0" xmlns="http://www.w3.org/2000/svg"
 width="700.000000pt" height="700.000000pt" viewBox="0 0 700.000000 700.000000"
 preserveAspectRatio="xMidYMid meet">
<metadata>
Created by potrace 1.14, written by Peter Selinger 2001-2017
</metadata>
<g transform="translate(0.000000,700.000000) scale(0.100000,-0.100000)"
fill="#000000" stroke="none">
<path d="M1779 6996 c-2 -2 -74 -6 -159 -10 -161 -6 -217 -10 -360 -27 -142
-16 -148 -17 -202 -28 -29 -6 -66 -13 -83 -16 -45 -7 -151 -39 -230 -69 -388
-148 -620 -479 -690 -981 -3 -22 -7 -53 -10 -70 -2 -16 -7 -64 -10 -105 -4
-41 -8 -86 -11 -100 -15 -91 -19 -558 -19 -2085 0 -1534 5 -2031 19 -2077 3
-7 7 -53 10 -103 4 -49 8 -99 10 -110 2 -11 7 -42 10 -70 27 -192 71 -345 141
-491 142 -293 399 -483 770 -566 96 -21 106 -23 175 -32 25 -4 59 -9 75 -11
17 -2 59 -7 95 -10 36 -4 83 -8 105 -10 155 -16 565 -20 2085 -20 1512 0 1932
4 2095 20 22 2 69 7 105 10 267 25 500 84 665 167 280 142 475 417 550 775 23
108 22 102 30 163 4 30 9 64 11 74 2 11 6 56 10 100 3 45 7 92 9 105 16 95 20
570 20 2091 0 1502 -4 1946 -20 2085 -2 17 -6 61 -10 98 -3 37 -8 76 -10 85
-1 9 -6 42 -9 72 -18 157 -69 343 -131 477 -98 213 -275 389 -487 487 -115 53
-237 90 -413 122 -22 4 -42 8 -45 9 -3 1 -39 5 -80 9 -41 5 -84 10 -94 12 -11
2 -62 6 -115 10 -53 3 -118 8 -146 11 -53 6 -3650 15 -3656 9z m41 -1140 c46
-5 90 -19 148 -47 147 -71 250 -199 287 -357 16 -64 13 -207 -5 -262 -63 -192
-214 -332 -398 -371 -77 -16 -204 -7 -277 20 -302 108 -439 469 -284 749 84
150 230 251 394 269 28 3 52 7 54 9 2 2 7 2 10 0 3 -2 35 -7 71 -10z m375
-3074 c0 -1635 0 -1642 -20 -1643 -28 -1 -836 -1 -857 0 -17 1 -18 86 -18
1646 l0 1645 447 -2 448 -3 0 -1643z m1491 1410 c-1 -130 0 -247 3 -259 3 -19
9 -14 41 35 79 122 197 227 351 311 73 40 206 93 266 107 234 53 443 53 643
-1 112 -29 283 -120 379 -200 47 -39 99 -89 115 -111 17 -21 33 -41 36 -44 3
-3 26 -36 51 -75 100 -154 173 -378 196 -605 3 -30 6 -540 7 -1132 l1 -1078
-25 -1 c-99 -3 -861 -1 -865 2 -2 3 -6 414 -8 914 -1 501 -6 924 -10 940 -4
17 -10 44 -14 60 -4 17 -8 35 -9 40 -1 6 -10 30 -18 55 -60 164 -191 303 -336
355 -71 26 -80 27 -175 31 -88 3 -197 -15 -219 -37 -6 -5 -17 -9 -26 -9 -9 0
-43 -18 -76 -41 -185 -128 -281 -303 -302 -551 -4 -46 -7 -460 -6 -921 0 -587
-3 -837 -10 -838 -13 -1 -868 -1 -878 0 -5 1 -8 741 -8 1645 l0 1645 448 0
449 -1 -1 -236z"/>
</g>
</svg>
